<svg width="1630" height="182" viewBox="0 0 1630 182" fill="none" xmlns="http://www.w3.org/2000/svg">
<path d="M85.6093 91.2051H45.4957V103.109H73.9502C72.537 119.796 58.6495 126.916 45.55 126.916C37.1168 126.916 29.0291 123.566 23.0659 117.603C17.1027 111.64 13.7527 103.552 13.7527 95.1187C13.7527 86.6855 17.1027 78.5977 23.0659 72.6345C29.0291 66.6714 37.1168 63.3213 45.55 63.3213C53.5434 63.3089 61.23 66.3972 66.9929 71.9365L75.3363 63.2941C67.2774 55.5027 56.4593 51.2224 45.2511 51.3905C39.5086 51.4316 33.8305 52.6033 28.5408 54.8387C23.2512 57.0742 18.4537 60.3296 14.4221 64.4192C10.3906 68.5087 7.2041 73.3523 5.04447 78.6734C2.88485 83.9944 1.79442 89.6887 1.83547 95.4312C1.87651 101.174 3.04821 106.852 5.28368 112.141C7.51914 117.431 10.7746 122.229 14.8641 126.26C18.9537 130.292 23.7973 133.478 29.1183 135.638C34.4394 137.797 40.1337 138.888 45.8762 138.847C69.2757 138.847 86.4246 122.812 86.4246 99.0865C86.473 96.4403 86.2269 93.7969 85.6908 91.2051H85.6093ZM118.467 82.59C112.918 82.6115 107.5 84.2751 102.895 87.3712C98.2908 90.4672 94.7059 94.8571 92.5925 99.9874C90.479 105.118 89.9317 110.759 91.0195 116.2C92.1072 121.641 94.7814 126.638 98.7049 130.562C102.628 134.485 107.625 137.159 113.066 138.247C118.507 139.335 124.149 138.787 129.279 136.674C134.409 134.561 138.799 130.976 141.895 126.371C144.991 121.767 146.655 116.349 146.676 110.8C146.735 107.079 146.046 103.384 144.649 99.9353C143.252 96.4862 141.176 93.353 138.545 90.7217C135.913 88.0903 132.78 86.0146 129.331 84.6177C125.882 83.2208 122.187 82.5312 118.467 82.59V82.59ZM118.63 93.6239C122.05 93.4224 125.451 94.2532 128.394 96.0086C131.336 97.7639 133.683 100.363 135.13 103.468C136.577 106.574 137.057 110.042 136.509 113.424C135.961 116.806 134.409 119.945 132.055 122.434C129.701 124.924 126.654 126.648 123.308 127.384C119.961 128.12 116.471 127.834 113.29 126.562C110.109 125.291 107.383 123.092 105.466 120.253C103.55 117.413 102.53 114.063 102.541 110.637C102.427 108.45 102.758 106.263 103.514 104.209C104.27 102.154 105.436 100.274 106.94 98.6835C108.445 97.0927 110.256 95.824 112.266 94.9543C114.275 94.0846 116.44 93.632 118.63 93.6239V93.6239ZM179.941 82.59C174.392 82.6061 168.971 84.2652 164.363 87.358C159.755 90.4508 156.166 94.8388 154.048 99.9687C151.93 105.099 151.379 110.741 152.464 116.183C153.549 121.626 156.221 126.626 160.143 130.552C164.065 134.478 169.063 137.155 174.504 138.245C179.946 139.335 185.589 138.789 190.72 136.677C195.852 134.564 200.244 130.979 203.341 126.374C206.438 121.769 208.103 116.35 208.124 110.8C208.183 107.081 207.494 103.389 206.099 99.9418C204.704 96.4945 202.63 93.3625 200.002 90.7315C197.374 88.1006 194.244 86.0243 190.798 84.6257C187.352 83.2272 183.66 82.5349 179.941 82.59ZM180.104 93.6239C183.525 93.4224 186.926 94.2532 189.868 96.0086C192.811 97.7639 195.158 100.363 196.605 103.468C198.052 106.574 198.532 110.042 197.984 113.424C197.436 116.806 195.884 119.945 193.53 122.434C191.176 124.924 188.128 126.648 184.782 127.384C181.436 128.12 177.946 127.834 174.765 126.562C171.584 125.291 168.858 123.092 166.941 120.253C165.024 117.413 164.005 114.063 164.016 110.637C163.901 108.45 164.233 106.263 164.989 104.209C165.745 102.154 166.911 100.274 168.415 98.6835C169.92 97.0927 171.731 95.824 173.741 94.9543C175.75 94.0846 177.915 93.632 180.104 93.6239V93.6239ZM240.193 82.6171C225.083 82.6171 213.206 95.8524 213.206 110.691C213.095 117.942 215.83 124.949 220.824 130.207C225.818 135.466 232.674 138.557 239.922 138.82C242.846 138.979 245.767 138.444 248.445 137.258C251.123 136.073 253.483 134.27 255.331 131.998V137.434C255.331 147.136 249.434 152.925 240.547 152.925C237.447 152.899 234.426 151.949 231.87 150.196C229.313 148.444 227.338 145.968 226.197 143.086L215.326 147.598C217.429 152.548 220.953 156.763 225.452 159.709C229.951 162.655 235.223 164.2 240.601 164.149C255.63 164.149 267.072 154.691 267.072 134.852V84.3021H255.358V89.0581C253.437 86.9636 251.09 85.305 248.474 84.1939C245.858 83.0829 243.034 82.5452 240.193 82.6171V82.6171ZM241.28 93.6239C248.7 93.6239 256.282 99.9562 256.282 110.746C256.282 121.535 248.7 127.786 241.117 127.786C238.973 127.731 236.862 127.246 234.909 126.358C232.957 125.47 231.203 124.198 229.752 122.618C228.302 121.038 227.184 119.182 226.466 117.161C225.748 115.14 225.444 112.995 225.572 110.854C225.572 99.9834 233.345 93.6239 241.28 93.6239V93.6239ZM319.551 82.5356C305.31 82.5356 293.325 93.8685 293.325 110.61C293.184 114.299 293.796 117.979 295.125 121.424C296.453 124.868 298.47 128.007 301.051 130.646C303.632 133.286 306.724 135.372 310.139 136.778C313.553 138.183 317.218 138.878 320.91 138.82C325.54 138.829 330.102 137.71 334.203 135.56C338.304 133.411 341.819 130.294 344.445 126.481L334.716 120.013C333.306 122.405 331.289 124.381 328.869 125.741C326.449 127.102 323.713 127.798 320.937 127.758C318.053 127.878 315.2 127.131 312.745 125.615C310.289 124.099 308.343 121.883 307.158 119.252L344.853 103.625L342.896 99.0322C341.099 94.2609 337.91 90.1397 333.743 87.203C329.575 84.2663 324.621 82.6497 319.524 82.5628L319.551 82.5356ZM320.04 93.4065C322.166 93.3148 324.275 93.8311 326.118 94.8948C327.962 95.9586 329.464 97.5258 330.449 99.4127L305.283 109.93C305.158 107.874 305.441 105.814 306.117 103.868C306.793 101.923 307.847 100.13 309.219 98.5938C310.591 97.0576 312.253 95.8083 314.111 94.918C315.968 94.0276 317.983 93.514 320.04 93.4065V93.4065ZM275.361 137.162H287.753V54.2985H275.361V137.162Z" fill="#546399"/>
<path d="M622.686 126.961C617.799 133.524 611.475 140.372 603.139 145.508C595.09 150.643 585.891 154.638 574.968 154.638C564.907 154.638 556.571 149.502 551.972 145.222C545.073 138.66 541.336 129.244 540.186 120.399C537.024 93.0074 553.984 57.0562 580.142 41.0779C586.179 37.3687 592.79 35.6567 599.114 35.6567C611.762 35.6567 621.248 44.5019 622.398 55.3443C623.548 65.0454 619.811 73.3199 608.888 78.7411C603.426 81.5943 600.552 81.309 599.689 80.1677C599.114 79.3117 599.402 77.8851 600.552 77.0291C610.613 68.7546 610.9 61.9068 609.75 52.2057C608.888 45.9285 604.863 41.9339 600.264 41.9339C580.43 41.9339 551.684 86.1596 555.709 118.116C557.146 130.671 564.907 145.222 581.005 145.222C586.179 145.222 591.928 143.796 596.815 141.228C608.026 135.521 612.912 131.527 619.524 122.396C620.386 121.255 621.248 119.828 622.111 118.687C622.686 117.546 623.836 117.26 624.698 117.26C625.56 117.26 626.71 118.116 626.71 119.543C626.71 120.399 626.423 122.111 625.273 123.537C624.698 124.108 623.548 125.82 622.686 126.961Z" fill="#546399"/>
<path d="M652.867 143.225C647.981 143.225 645.106 140.657 643.956 136.662C640.794 140.942 636.195 143.225 631.596 143.225C623.834 143.225 616.648 136.662 615.498 128.102C613.773 112.98 626.709 93.5776 646.256 93.5776C654.592 93.5776 661.491 97.0016 662.353 103.564C663.503 111.839 656.317 113.551 653.73 113.551C651.43 113.551 647.693 112.98 647.406 110.697C647.118 108.415 652.293 109.841 651.718 104.42C651.43 100.996 647.981 99.8548 644.531 99.8548C632.458 99.8548 625.847 116.404 627.284 126.676C627.859 131.241 630.158 135.806 634.47 135.806C637.92 135.806 643.094 130.955 644.819 123.537C645.968 118.686 650.855 115.262 654.305 115.262C656.029 115.262 657.467 116.118 657.754 117.83C657.754 118.401 657.754 119.257 657.467 120.398C657.179 122.681 655.455 129.529 655.455 131.241C655.455 132.667 656.317 134.379 658.617 134.379C661.204 134.379 672.989 127.532 679.601 118.401C680.176 117.545 681.326 116.974 682.188 116.974C683.05 116.974 684.2 117.545 684.2 118.686C684.488 119.828 683.913 121.254 682.475 123.252C675.002 134.094 658.617 143.225 652.867 143.225Z" fill="#546399"/>
<path d="M817.581 137.517C818.156 142.368 820.455 145.507 822.467 147.219C823.33 147.789 823.617 148.645 823.617 149.216C823.905 150.642 822.755 151.784 821.03 151.784C820.455 151.784 819.88 151.784 819.305 151.498C810.682 148.075 807.232 142.368 806.082 136.947C802.92 140.941 798.321 143.509 794.009 143.509C786.248 143.509 779.061 136.947 777.912 128.387C776.187 113.55 789.697 94.1477 808.957 94.1477C817.006 94.1477 824.192 97.2863 825.055 103.849C826.204 112.123 818.73 113.835 816.431 113.835C813.844 113.835 810.107 113.265 809.819 110.982C809.532 108.985 814.994 110.126 814.419 104.99C814.131 101.566 810.394 100.425 807.232 100.425C796.021 100.425 788.548 114.977 789.985 126.96C790.56 131.811 792.859 136.376 797.171 136.376C800.621 136.376 805.795 131.526 807.807 124.107C808.957 119.256 813.844 115.833 817.293 115.833C819.018 115.833 820.455 116.689 820.743 118.686C820.743 119.542 820.455 121.824 818.731 129.528C817.293 132.382 817.293 135.235 817.581 137.517Z" fill="#546399"/>
<path d="M714.1 134.664C716.687 134.664 725.311 131.526 732.21 122.11C733.072 121.254 733.935 120.683 734.797 120.683C735.947 120.683 736.809 121.254 737.097 122.395C737.097 123.251 736.522 124.963 735.085 126.96C727.323 137.803 714.1 143.224 708.351 143.224C702.315 143.224 699.153 139.515 698.578 134.093C698.29 132.382 698.29 130.099 698.865 127.816C700.877 115.547 705.477 108.129 705.189 105.846C705.189 105.275 704.614 104.99 704.327 104.99C700.59 104.99 687.079 118.686 685.067 127.816L683.343 134.949C682.193 140.085 677.306 143.224 673.856 143.224C672.132 143.224 670.982 142.368 670.694 140.656C670.694 140.085 670.694 139.229 670.982 138.088C670.982 138.088 677.593 104.419 677.881 102.708C678.743 98.7129 680.181 94.7184 688.229 94.7184C689.954 94.7184 691.104 95.5743 691.391 97.5716C691.391 98.1423 691.391 98.9983 691.104 100.14L688.804 110.411C695.991 100.996 706.914 94.1477 713.813 94.1477C716.687 94.1477 718.7 95.5743 719.275 98.7129C719.562 100.425 718.987 103.278 717.837 106.417C715.538 112.979 712.951 122.395 710.938 130.67C710.363 131.811 710.938 134.664 714.1 134.664Z" fill="#546399"/>
<path d="M759.513 95.2919C759.513 99.8571 761.813 104.708 764.688 107.846C765.837 104.708 766.412 101.569 766.412 98.4305C766.412 92.4386 764.113 89.8707 762.388 89.8707C760.376 89.8707 759.513 92.724 759.513 95.2919ZM769.862 119.83C768.999 119.83 768.137 119.83 766.987 119.545C759.513 130.387 751.752 137.806 745.715 140.944C743.128 142.371 740.829 142.941 739.104 142.941C737.667 142.941 736.229 142.656 735.654 141.515C733.067 136.95 731.917 128.104 731.917 118.689C731.917 111.841 732.492 106.134 733.642 102.14C735.08 97.8598 740.541 93.8653 743.991 93.8653C745.715 93.8653 747.153 94.7213 747.153 96.7185C747.153 97.2892 746.865 98.1452 746.578 99.0012C743.991 106.134 742.841 112.982 742.841 119.83C742.841 123.539 743.703 129.816 744.566 132.955C744.853 133.526 744.853 134.382 745.428 134.382C746.578 134.382 754.339 126.678 760.088 117.547C755.201 114.409 752.327 108.702 752.327 101.569C752.327 89.5854 759.513 83.5935 766.412 83.5935C771.874 83.5935 776.761 87.5881 776.761 95.5772C776.761 100.428 774.749 106.134 771.874 111.556C771.874 111.556 773.024 111.841 773.599 111.841C777.911 111.841 781.36 109.844 783.085 107.846C784.522 106.42 785.672 105.278 786.822 105.278C787.684 105.278 787.972 105.849 787.972 106.705C787.972 107.276 787.684 108.132 787.397 108.988C783.372 115.55 775.898 119.83 769.862 119.83Z" fill="#546399"/>
<path d="M1348.53 91.5685C1348.53 100.276 1352.77 107.264 1369.32 110.322C1379.19 112.303 1381.26 113.838 1381.26 116.995C1381.26 120.151 1379.19 122.045 1372.18 122.045C1363.77 121.899 1355.53 119.76 1348.19 115.819V130.078C1353.18 132.418 1359.76 135.041 1372.03 135.041C1389.34 135.041 1396.21 127.65 1396.21 116.646L1348.53 91.5685ZM1396.21 116.646C1396.21 106.273 1390.48 101.408 1374.29 98.0665C1365.36 96.1726 1363.19 94.2787 1363.19 91.5359C1363.19 88.1072 1366.39 86.6705 1372.27 86.6705C1379.42 86.6705 1386.47 88.7494 1393.15 91.6338V78.0391C1386.74 75.2411 1379.76 73.8539 1372.72 73.9792C1356.73 73.9792 1348.45 80.6514 1348.45 91.5685" fill="#546399"/>
<path d="M1570.88 74.8838V134.139H1584.04V88.9574L1589.59 100.952L1608.22 134.139H1624.77V74.8838H1611.6V113.132L1606.62 102.03L1591.66 74.8838H1570.88Z" fill="#546399"/>
<path d="M1487.12 74.8838H1472.73V134.139H1487.12V74.8838Z" fill="#546399"/>
<path d="M1456.13 116.646C1456.13 106.273 1450.4 101.408 1434.21 98.0665C1425.28 96.1726 1423.11 94.2787 1423.11 91.5359C1423.11 88.1072 1426.31 86.6705 1432.19 86.6705C1439.34 86.6705 1446.39 88.7494 1453.08 91.6338V78.0391C1446.67 75.2411 1439.69 73.8539 1432.64 73.9792C1416.65 73.9792 1408.38 80.6514 1408.38 91.5685C1408.38 100.276 1412.61 107.264 1429.16 110.322C1439.03 112.303 1441.1 113.838 1441.1 116.995C1441.1 120.151 1439.03 122.045 1432.02 122.045C1423.61 121.899 1415.37 119.76 1408.04 115.819V130.078C1413.02 132.418 1419.6 135.041 1431.87 135.041C1449.18 135.041 1456.05 127.65 1456.05 116.646" fill="#546399"/>
<path d="M1236.74 74.8838V134.139H1266.32L1270.98 121.339H1251.23V74.8838H1236.74Z" fill="#546399"/>
<path d="M1178.3 74.8838V87.6948H1194.29V134.139H1208.78V87.6948H1225.89V74.8838H1178.3Z" fill="#546399"/>
<path d="M1157.3 74.8865H1138.32L1116.75 134.141H1133.27L1136.29 124.16C1143.83 126.288 1151.84 126.288 1159.38 124.16L1162.43 134.141H1178.89L1157.3 74.8865ZM1147.81 113.483C1145.12 113.486 1142.45 113.12 1139.87 112.394L1147.81 86.522L1155.76 112.394C1153.18 113.12 1150.5 113.486 1147.81 113.483V113.483Z" fill="#546399"/>
<path d="M1317.32 74.8838H1298.34L1276.77 134.139H1293.23L1296.31 124.158C1303.83 126.277 1311.83 126.277 1319.35 124.158L1322.4 134.139H1338.86L1317.32 74.8838ZM1307.83 113.48C1305.14 113.484 1302.47 113.117 1299.88 112.392L1307.83 86.5193L1315.78 112.392C1313.2 113.117 1310.52 113.484 1307.83 113.48Z" fill="#546399"/>
<path d="M1538.97 74.8838H1519.99L1498.42 134.139H1514.88L1517.96 124.158C1525.48 126.277 1533.48 126.277 1541 124.158L1544.05 134.139H1560.51L1538.97 74.8838ZM1529.48 113.48C1526.79 113.484 1524.11 113.117 1521.53 112.392L1529.48 86.5193L1537.42 112.392C1534.84 113.117 1532.17 113.484 1529.48 113.48V113.48Z" fill="#546399"/>
<path d="M1033.8 95.7217V95.7213C1033.61 95.5047 1033.36 95.3359 1033.09 95.2292C1032.81 95.1225 1032.51 95.081 1032.21 95.1082C1031.96 95.152 1031.73 95.2548 1031.53 95.4073C1031.33 95.5599 1031.18 95.7575 1031.08 95.9821L1012.37 131.85C1012.24 132.09 1012.18 132.356 1012.19 132.624C1012.21 132.892 1012.29 133.152 1012.44 133.38C1012.58 133.609 1012.79 133.797 1013.03 133.927C1013.28 134.058 1013.55 134.126 1013.83 134.126H1039.89C1040.19 134.132 1040.49 134.053 1040.75 133.898C1041.01 133.744 1041.22 133.52 1041.35 133.255C1046.82 122.423 1043.43 105.59 1033.8 95.7217Z" fill="#546399"/>
<path d="M1087.16 131.862C1086.81 131.188 1052.1 64.5924 1051.24 62.9365C1051.13 62.7045 1050.96 62.5058 1050.74 62.3613C1050.52 62.2169 1050.26 62.1322 1050 62.1161L1049.94 62.115C1049.63 62.13 1049.34 62.219 1049.08 62.3737C1048.82 62.5283 1048.61 62.7435 1048.46 62.9989L1048.46 63.0004C1039.05 77.2926 1037.98 94.5489 1045.61 109.161L1058.17 133.249C1058.3 133.515 1058.51 133.739 1058.77 133.896C1059.03 134.054 1059.33 134.137 1059.64 134.137H1085.69C1085.97 134.138 1086.25 134.069 1086.49 133.939C1086.73 133.808 1086.94 133.62 1087.09 133.392C1087.23 133.164 1087.32 132.904 1087.33 132.636C1087.34 132.368 1087.28 132.101 1087.16 131.862H1087.16Z" fill="#546399"/>
</svg>
