<svg width="2406" height="1606" viewBox="0 0 2406 1606" fill="none" xmlns="http://www.w3.org/2000/svg">
<path d="M-22 1604.5H2424.25V475.454C2424.25 475.454 2680.5 40.5448 2165.5 1.60251C1650.5 -37.3398 1503.35 648.447 880.513 426.979C257.673 205.51 -22 475.454 -22 475.454L-22 1604.5Z" fill="url(#paint0_linear_72_1917)"/>
<path fill-rule="evenodd" clip-rule="evenodd" d="M0.180608 179.341H0.180421L0.125 1603.82H2424.97L2425.01 537.437C2407.97 533.419 2389.87 531.256 2371.1 531.256C2270.08 531.256 2188.18 593.968 2188.18 671.327C2188.18 690.117 2193.01 708.043 2201.78 724.416C2151.64 734.463 2113.04 766.352 2104.35 806.008C2103.97 806.004 2103.59 806.001 2103.2 805.999C2102.81 805.997 2102.41 805.996 2102.01 805.996C2008.78 805.996 1933.2 863.871 1933.2 935.263C1933.2 943.957 1934.32 952.45 1936.46 960.662C1890 976.55 1857.61 1012.24 1857.61 1053.73C1857.61 1066.83 1860.85 1079.36 1866.73 1090.87C1850.51 1096.2 1837.17 1105.7 1829.03 1117.61C1811.54 1113.21 1792.86 1110.83 1773.46 1110.83C1701.91 1110.83 1640.23 1143.18 1611.99 1189.81C1597.65 1192.22 1584.44 1196.94 1573.06 1203.44H1562.69C1544.64 1181.64 1512.86 1167.17 1476.65 1167.17C1451.47 1167.17 1428.41 1174.18 1410.64 1185.78C1392.87 1174.18 1369.82 1167.17 1344.63 1167.17C1308.43 1167.17 1276.64 1181.64 1258.59 1203.44H1129.2C1121.03 1172.62 1085.45 1149.42 1042.78 1149.42C1007.47 1149.42 977.004 1165.32 962.921 1188.27C960.345 1188.1 957.736 1188.01 955.101 1188.01C933.782 1188.01 914.231 1193.8 898.984 1203.44H898.155C882.444 1184.87 855.138 1172.57 824.083 1172.57C809.539 1172.57 795.817 1175.27 783.724 1180.05C778.805 1146.32 741.446 1120.1 696.088 1120.1C687.627 1120.1 679.445 1121.01 671.699 1122.71C675.439 1112.82 677.443 1102.36 677.443 1091.54C677.443 1029.74 612.016 979.639 531.307 979.639C528.601 979.639 525.912 979.695 523.242 979.806C523.243 979.739 523.244 979.671 523.244 979.603L523.244 979.517L523.245 979.409L523.245 979.252C523.245 945.651 497.867 916.589 460.987 902.692C464.136 892.07 465.798 881.016 465.798 869.665C465.798 798.026 399.58 738.231 311.456 724.212C322.553 705.504 328.733 684.724 328.733 662.838C328.733 580.79 241.873 514.277 134.726 514.277C104.553 514.277 75.9894 519.552 50.5209 528.962C42.9245 501.049 25.0982 476.009 0.180608 456.247V179.341ZM404.321 1146.96C404.938 1147.79 405.569 1148.61 406.213 1149.42H404.321V1146.96Z" fill="url(#paint1_linear_72_1917)"/>
<path fill-rule="evenodd" clip-rule="evenodd" d="M0.179593 314.904V586.672C25.0975 606.434 42.9239 631.474 50.5204 659.387C75.989 649.977 104.553 644.702 134.726 644.702C241.873 644.702 328.733 711.215 328.733 793.263C328.733 815.149 322.553 835.93 311.456 854.637C399.579 868.656 465.798 928.452 465.798 1000.09C465.798 1011.44 464.136 1022.5 460.987 1033.12C497.866 1047.01 523.245 1076.08 523.245 1109.68L523.245 1109.81C523.244 1109.88 523.244 1109.94 523.244 1110C523.244 1110.08 523.243 1110.16 523.242 1110.23C525.912 1110.12 528.601 1110.06 531.307 1110.06C612.016 1110.06 677.443 1160.16 677.443 1221.97C677.443 1232.78 675.439 1243.24 671.699 1253.14C679.444 1251.43 687.627 1250.52 696.088 1250.52C741.446 1250.52 778.805 1276.74 783.724 1310.47C795.817 1305.7 809.539 1303 824.082 1303C855.138 1303 882.444 1315.29 898.155 1333.87H898.983C914.23 1324.23 933.782 1318.43 955.101 1318.43C957.736 1318.43 960.345 1318.52 962.922 1318.7C977.004 1295.74 1007.47 1279.85 1042.78 1279.85C1085.45 1279.85 1121.03 1303.05 1129.2 1333.87H1258.59C1276.64 1312.07 1308.43 1297.6 1344.63 1297.6C1369.82 1297.6 1392.87 1304.6 1410.64 1316.21C1428.41 1304.6 1451.47 1297.6 1476.65 1297.6C1512.86 1297.6 1544.64 1312.07 1562.69 1333.87H1573.06C1584.44 1327.37 1597.65 1322.65 1611.99 1320.24C1640.23 1273.6 1701.91 1241.26 1773.46 1241.26C1792.86 1241.26 1811.54 1243.64 1829.03 1248.04C1837.17 1236.13 1850.51 1226.63 1866.73 1221.29C1860.85 1209.79 1857.61 1197.26 1857.61 1184.15C1857.61 1142.67 1890 1106.98 1936.46 1091.09C1934.32 1082.87 1933.2 1074.38 1933.2 1065.69C1933.2 994.296 2008.78 936.422 2102.01 936.422L2102.59 936.422C2102.87 936.423 2103.15 936.424 2103.43 936.426C2103.74 936.428 2104.04 936.43 2104.35 936.434C2113.04 896.777 2151.64 864.888 2201.78 854.841C2193.02 838.468 2188.18 820.542 2188.18 801.752C2188.18 724.393 2270.08 661.681 2371.1 661.681C2389.84 661.681 2407.92 663.838 2424.95 667.847L2424.91 1605.82H0.128906L0.179593 314.904ZM404.321 1277.38C404.938 1278.21 405.569 1279.03 406.214 1279.85H404.321V1277.38ZM0.179593 900.294V1558.45H0.180051V1509.83V1333.87V1279.85V900.294L0.179593 900.294Z" fill="url(#paint2_linear_72_1917)"/>
<path fill-rule="evenodd" clip-rule="evenodd" d="M0.180055 407.076V682.726C25.0977 702.488 42.924 727.527 50.5204 755.441C75.989 746.03 104.553 740.756 134.726 740.756C241.873 740.756 328.733 807.269 328.733 889.316C328.733 911.202 322.553 931.983 311.456 950.69C399.58 964.709 465.798 1024.5 465.798 1096.14C465.798 1107.49 464.136 1118.55 460.987 1129.17C497.866 1143.07 523.245 1172.13 523.245 1205.73C523.245 1205.92 523.244 1206.1 523.242 1206.28C525.912 1206.17 528.601 1206.12 531.307 1206.12C612.016 1206.12 677.443 1256.22 677.443 1318.02C677.443 1328.84 675.439 1339.3 671.699 1349.19C679.444 1347.49 687.627 1346.57 696.088 1346.57C741.446 1346.57 778.805 1372.8 783.724 1406.52C795.817 1401.75 809.539 1399.05 824.083 1399.05C848.844 1399.05 871.221 1406.87 887.239 1419.45C882.221 1278.21 955.891 1179.36 1138.4 1028.89C1326.4 873.886 1215.4 966.386 1215.4 966.386C1215.4 966.386 1018.3 1294.26 1197.49 1429.92H1258.59C1276.64 1408.12 1308.43 1393.65 1344.63 1393.65C1369.82 1393.65 1392.87 1400.66 1410.64 1412.26C1428.41 1400.66 1451.47 1393.65 1476.65 1393.65C1512.86 1393.65 1544.64 1408.12 1562.69 1429.92H1573.06C1584.44 1423.42 1597.65 1418.7 1611.99 1416.29C1640.23 1369.66 1701.91 1337.31 1773.46 1337.31C1792.86 1337.31 1811.54 1339.69 1829.03 1344.09C1837.17 1332.18 1850.51 1322.68 1866.73 1317.35C1860.85 1305.84 1857.61 1293.31 1857.61 1280.2C1857.61 1238.72 1890 1203.03 1936.46 1187.14C1934.32 1178.93 1933.2 1170.43 1933.2 1161.74C1933.2 1090.35 2008.78 1032.47 2102.01 1032.47C2102.79 1032.47 2103.57 1032.48 2104.35 1032.49C2113.04 992.831 2151.64 960.941 2201.78 950.894C2193.01 934.521 2188.18 916.596 2188.18 897.806C2188.18 820.446 2270.08 757.734 2371.1 757.734C2389.87 757.734 2407.97 759.897 2425.01 763.915L2424.98 1605.82H0.132812L0.180055 407.076ZM406.213 1375.9C405.569 1375.09 404.938 1374.26 404.321 1373.44V1375.9H406.213Z" fill="white"/>
<defs>
<linearGradient id="paint0_linear_72_1917" x1="1129.75" y1="1798.48" x2="1169.77" y2="44.2325" gradientUnits="userSpaceOnUse">
<stop offset="0.302083" stop-color="#44268F"/>
<stop offset="0.46865" stop-color="#5A69CE"/>
<stop offset="0.677083" stop-color="#67B3D9"/>
</linearGradient>
<linearGradient id="paint1_linear_72_1917" x1="1212.57" y1="179.341" x2="1212.57" y2="1603.82" gradientUnits="userSpaceOnUse">
<stop stop-color="#C7DAE3"/>
<stop offset="1" stop-color="#76BBDD" stop-opacity="0.11"/>
</linearGradient>
<linearGradient id="paint2_linear_72_1917" x1="1212.57" y1="314.861" x2="1212.57" y2="1606.09" gradientUnits="userSpaceOnUse">
<stop stop-color="#D7F2FF"/>
<stop offset="1" stop-color="#76BBDD" stop-opacity="0"/>
</linearGradient>
</defs>
</svg>
