<svg width="2406" height="1324" viewBox="0 0 2406 1324" fill="none" xmlns="http://www.w3.org/2000/svg">
<path d="M-0.0920105 1273.5C396.12 1355 2319.02 1331.5 2399.62 1246.5C2480.22 1161.5 2475.04 -162.423 2368.01 31.9307C2260.98 226.284 93.9314 -128.746 -0.0922089 54.2244C-94.1158 237.195 -396.304 1192 -0.0920105 1273.5Z" fill="url(#paint0_linear_72_2092)"/>
<path fill-rule="evenodd" clip-rule="evenodd" d="M8 574.986V1292.89H2429V388.242H2428.99L2428.99 640.509C2411.98 637.265 2393.9 635.519 2375.16 635.519C2274.3 635.519 2192.53 686.127 2192.53 748.556C2192.53 763.72 2197.35 778.186 2206.1 791.399C2156.04 799.506 2117.5 825.241 2108.83 857.245C2108.05 857.238 2107.28 857.235 2106.49 857.235C2013.41 857.235 1937.95 903.94 1937.95 961.553C1937.95 968.569 1939.07 975.422 1941.2 982.049C1894.81 994.871 1862.48 1023.67 1862.48 1057.15C1862.48 1067.73 1865.71 1077.84 1871.59 1087.13C1855.39 1091.43 1842.07 1099.1 1833.94 1108.71C1816.48 1105.16 1797.84 1103.24 1778.46 1103.24C1707.03 1103.24 1645.45 1129.34 1617.25 1166.98C1602.93 1168.92 1589.74 1172.73 1578.38 1177.98H1568.03C1550.01 1160.38 1518.27 1148.7 1482.13 1148.7C1456.98 1148.7 1433.96 1154.36 1416.22 1163.72C1398.47 1154.36 1375.46 1148.7 1350.31 1148.7C1314.17 1148.7 1282.43 1160.38 1264.41 1177.98H1135.24C1127.08 1153.1 1091.55 1134.38 1048.95 1134.38C1013.7 1134.38 983.279 1147.21 969.218 1165.73C966.643 1165.59 964.037 1165.52 961.403 1165.52C940.117 1165.52 920.595 1170.19 905.372 1177.98H904.549C888.862 1162.98 861.6 1153.06 830.594 1153.06C816.072 1153.06 802.371 1155.24 790.296 1159.09C785.386 1131.88 748.085 1110.71 702.799 1110.71C694.353 1110.71 686.185 1111.45 678.453 1112.82C682.186 1104.84 684.187 1096.4 684.187 1087.67C684.187 1037.8 618.864 997.364 538.284 997.364C535.581 997.364 532.896 997.41 530.23 997.5C530.231 997.351 530.232 997.202 530.232 997.052C530.232 969.936 504.894 946.483 468.072 935.268C471.216 926.696 472.876 917.776 472.876 908.615C472.876 850.803 406.764 802.548 318.78 791.234C329.86 776.138 336.03 759.368 336.03 741.706C336.03 675.494 249.308 621.818 142.331 621.818C112.207 621.818 83.689 626.074 58.2614 633.668C50.6768 611.141 32.8785 590.935 8 574.986ZM411.499 1132.39C412.115 1133.06 412.745 1133.72 413.388 1134.38H411.499V1132.39Z" fill="url(#paint1_linear_72_2092)" fill-opacity="0.3"/>
<path fill-rule="evenodd" clip-rule="evenodd" d="M8.05506 386V605.187C32.9336 621.135 50.732 641.342 58.3168 663.868C83.7443 656.274 112.262 652.018 142.386 652.018C249.363 652.018 336.085 705.694 336.085 771.907C336.085 789.569 329.915 806.339 318.835 821.436C406.819 832.75 472.933 881.005 472.933 938.817C472.933 947.978 471.273 956.898 468.129 965.47C504.95 976.685 530.288 1000.14 530.288 1027.25C530.288 1027.31 530.288 1027.37 530.288 1027.43C530.288 1027.52 530.287 1027.61 530.286 1027.7C532.952 1027.61 535.638 1027.56 538.34 1027.56C618.92 1027.56 684.244 1068 684.244 1117.87C684.244 1126.6 682.243 1135.04 678.509 1143.02C686.241 1141.65 694.409 1140.91 702.855 1140.91C748.141 1140.91 785.442 1162.08 790.352 1189.29C802.427 1185.44 816.128 1183.26 830.65 1183.26C861.656 1183.26 888.919 1193.18 904.606 1208.18H905.431C920.653 1200.4 940.174 1195.72 961.459 1195.72C964.092 1195.72 966.699 1195.79 969.273 1195.93C983.333 1177.41 1013.75 1164.58 1049.01 1164.58C1091.6 1164.58 1127.13 1183.3 1135.29 1208.18H1264.47C1282.48 1190.58 1314.22 1178.91 1350.37 1178.91C1375.51 1178.91 1398.53 1184.56 1416.27 1193.92C1434.02 1184.56 1457.03 1178.91 1482.18 1178.91C1518.32 1178.91 1550.06 1190.58 1568.08 1208.18H1578.44C1589.8 1202.93 1602.99 1199.12 1617.31 1197.18C1645.5 1159.54 1707.09 1133.44 1778.52 1133.44C1797.89 1133.44 1816.54 1135.36 1833.99 1138.91C1842.13 1129.3 1855.44 1121.63 1871.64 1117.33C1865.76 1108.04 1862.54 1097.93 1862.54 1087.35C1862.54 1053.88 1894.87 1025.07 1941.26 1012.25C1939.13 1005.62 1938.01 998.769 1938.01 991.754C1938.01 934.14 2013.47 887.435 2106.55 887.435C2107.33 887.435 2108.11 887.439 2108.89 887.445C2117.56 855.442 2156.1 829.708 2206.16 821.601C2197.41 808.387 2192.59 793.921 2192.59 778.758C2192.59 716.329 2274.35 665.72 2375.22 665.72C2393.93 665.72 2411.99 667.462 2428.98 670.698V1285.63H8.05589V1164.58H8.05628V858.282L8.05506 858.281V1285.63H8.01172L8.05506 386ZM411.555 1162.59C412.172 1163.26 412.802 1163.92 413.445 1164.58H411.555V1162.59Z" fill="url(#paint2_linear_72_2092)" fill-opacity="0.3"/>
<defs>
<linearGradient id="paint0_linear_72_2092" x1="1337.75" y1="-218.732" x2="1283.18" y2="1183.78" gradientUnits="userSpaceOnUse">
<stop offset="0.0242971" stop-color="#67B3D9"/>
<stop offset="0.533582" stop-color="#476199"/>
<stop offset="0.875" stop-color="#49539E"/>
<stop offset="1" stop-color="#4C3FA6"/>
</linearGradient>
<linearGradient id="paint1_linear_72_2092" x1="1218.5" y1="388.242" x2="1218.5" y2="1292.89" gradientUnits="userSpaceOnUse">
<stop stop-color="#C7DAE3"/>
<stop offset="1" stop-color="#76BBDD" stop-opacity="0.11"/>
</linearGradient>
<linearGradient id="paint2_linear_72_2092" x1="1218.53" y1="385.97" x2="1218.53" y2="1285.81" gradientUnits="userSpaceOnUse">
<stop stop-color="#D7F2FF"/>
<stop offset="1" stop-color="#76BBDD" stop-opacity="0"/>
</linearGradient>
</defs>
</svg>
