<svg width="2406" height="1058" viewBox="0 0 2406 1058" fill="none" xmlns="http://www.w3.org/2000/svg">
<path fill-rule="evenodd" clip-rule="evenodd" d="M-1.31716 0H2407V864.46C2407 864.46 1462.63 1113.54 1018.76 813.144C574.888 512.746 586.704 766.9 941.635 884.731C1296.57 1002.56 251.317 1100.31 47.258 798.428C28.6436 770.89 13.021 741.733 -0.000662723 711.48V1H-1.625C-1.42281 0.337415 -1.31716 0 -1.31716 0ZM455.988 364.052C457.591 364.052 458.89 361.824 458.89 359.076C458.89 356.328 457.591 354.101 455.988 354.101C454.385 354.101 453.085 356.328 453.085 359.076C453.085 361.824 454.385 364.052 455.988 364.052ZM1983.93 738.47C1983.93 740.989 1985.23 743.031 1986.83 743.031C1988.43 743.031 1989.73 740.989 1989.73 738.47C1989.73 735.951 1988.43 733.909 1986.83 733.909C1985.23 733.909 1983.93 735.951 1983.93 738.47ZM459.719 679.177C460.177 679.177 460.549 678.248 460.549 677.103C460.549 675.958 460.177 675.03 459.719 675.03C459.261 675.03 458.89 675.958 458.89 677.103C458.89 678.248 459.261 679.177 459.719 679.177ZM1987.24 345.393C1987.24 344.248 1987.8 343.32 1988.49 343.32C1989.17 343.32 1989.73 344.248 1989.73 345.393C1989.73 346.538 1989.17 347.466 1988.49 347.466C1987.8 347.466 1987.24 346.538 1987.24 345.393ZM1099.09 167.514C1099.55 167.514 1099.92 166.585 1099.92 165.44C1099.92 164.295 1099.55 163.367 1099.09 163.367C1098.63 163.367 1098.26 164.295 1098.26 165.44C1098.26 166.585 1098.63 167.514 1099.09 167.514ZM1347.87 857.056C1347.87 855.911 1348.43 854.983 1349.12 854.983C1349.8 854.983 1350.36 855.911 1350.36 857.056C1350.36 858.201 1349.8 859.129 1349.12 859.129C1348.43 859.129 1347.87 858.201 1347.87 857.056ZM1500.04 170.831C1500.73 170.831 1501.29 170.088 1501.29 169.172C1501.29 168.256 1500.73 167.514 1500.04 167.514C1499.36 167.514 1498.8 168.256 1498.8 169.172C1498.8 170.088 1499.36 170.831 1500.04 170.831ZM1649.73 217.27C1649.73 218.644 1648.99 219.758 1648.07 219.758C1647.16 219.758 1646.41 218.644 1646.41 217.27C1646.41 215.896 1647.16 214.782 1648.07 214.782C1648.99 214.782 1649.73 215.896 1649.73 217.27ZM2021.66 201.514C2021.89 201.514 2022.07 201.143 2022.07 200.685C2022.07 200.227 2021.89 199.855 2021.66 199.855C2021.43 199.855 2021.25 200.227 2021.25 200.685C2021.25 201.143 2021.43 201.514 2021.66 201.514ZM1878.61 427.492C1878.61 429.552 1879.54 431.223 1880.68 431.223C1881.83 431.223 1882.76 429.552 1882.76 427.492C1882.76 425.431 1881.83 423.76 1880.68 423.76C1879.54 423.76 1878.61 425.431 1878.61 427.492ZM562.135 811.031C563.28 811.031 564.208 809.361 564.208 807.3C564.208 805.239 563.28 803.568 562.135 803.568C560.99 803.568 560.062 805.239 560.062 807.3C560.062 809.361 560.99 811.031 562.135 811.031ZM1876.12 677.103C1876.12 678.248 1876.68 679.177 1877.36 679.177C1878.05 679.177 1878.61 678.248 1878.61 677.103C1878.61 675.958 1878.05 675.03 1877.36 675.03C1876.68 675.03 1876.12 675.958 1876.12 677.103ZM570.842 343.32C571.3 343.32 571.672 344.248 571.672 345.393C571.672 346.538 571.3 347.466 570.842 347.466C570.384 347.466 570.013 346.538 570.013 345.393C570.013 344.248 570.384 343.32 570.842 343.32ZM1358.65 275.319C1358.65 276.235 1359.02 276.978 1359.48 276.978C1359.94 276.978 1360.31 276.235 1360.31 275.319C1360.31 274.403 1359.94 273.661 1359.48 273.661C1359.02 273.661 1358.65 274.403 1358.65 275.319ZM1034.82 280.295C1034.13 280.295 1033.58 279.553 1033.58 278.637C1033.58 277.721 1034.13 276.978 1034.82 276.978C1035.51 276.978 1036.07 277.721 1036.07 278.637C1036.07 279.553 1035.51 280.295 1034.82 280.295ZM1414.21 743.86C1414.21 742.944 1413.84 742.201 1413.39 742.201C1412.93 742.201 1412.56 742.944 1412.56 743.86C1412.56 744.776 1412.93 745.519 1413.39 745.519C1413.84 745.519 1414.21 744.776 1414.21 743.86ZM916.236 318.442C915.549 318.442 914.992 317.514 914.992 316.369C914.992 315.224 915.549 314.295 916.236 314.295C916.923 314.295 917.48 315.224 917.48 316.369C917.48 317.514 916.923 318.442 916.236 318.442ZM1533.63 706.128C1533.63 704.983 1533.07 704.055 1532.39 704.055C1531.7 704.055 1531.14 704.983 1531.14 706.128C1531.14 707.273 1531.7 708.201 1532.39 708.201C1533.07 708.201 1533.63 707.273 1533.63 706.128ZM613.963 303.515C613.505 303.515 613.134 303.144 613.134 302.686C613.134 302.228 613.505 301.856 613.963 301.856C614.421 301.856 614.792 302.228 614.792 302.686C614.792 303.144 614.421 303.515 613.963 303.515ZM1495.48 269.929C1495.48 271.99 1496.41 273.661 1497.56 273.661C1498.7 273.661 1499.63 271.99 1499.63 269.929C1499.63 267.868 1498.7 266.197 1497.56 266.197C1496.41 266.197 1495.48 267.868 1495.48 269.929ZM945.26 653.469C946.405 653.469 947.333 651.798 947.333 649.737C947.333 647.676 946.405 646.005 945.26 646.005C944.115 646.005 943.187 647.676 943.187 649.737C943.187 651.798 944.115 653.469 945.26 653.469ZM1493 519.541C1493 520.686 1493.55 521.614 1494.24 521.614C1494.93 521.614 1495.48 520.686 1495.48 519.541C1495.48 518.396 1494.93 517.468 1494.24 517.468C1493.55 517.468 1493 518.396 1493 519.541ZM953.967 500.882C954.425 500.882 954.797 501.811 954.797 502.956C954.797 504.101 954.425 505.029 953.967 505.029C953.509 505.029 953.138 504.101 953.138 502.956C953.138 501.811 953.509 500.882 953.967 500.882ZM975.528 117.757C975.528 118.673 975.9 119.416 976.358 119.416C976.816 119.416 977.187 118.673 977.187 117.757C977.187 116.841 976.816 116.099 976.358 116.099C975.9 116.099 975.528 116.841 975.528 117.757ZM1471.43 903.081C1471.89 903.081 1472.26 903.823 1472.26 904.739C1472.26 905.655 1471.89 906.398 1471.43 906.398C1470.98 906.398 1470.6 905.655 1470.6 904.739C1470.6 903.823 1470.98 903.081 1471.43 903.081ZM650.452 121.074C650.452 121.99 650.823 122.733 651.281 122.733C651.74 122.733 652.111 121.99 652.111 121.074C652.111 120.158 651.74 119.416 651.281 119.416C650.823 119.416 650.452 120.158 650.452 121.074ZM533.111 160.879C532.424 160.879 531.867 159.951 531.867 158.806C531.867 157.661 532.424 156.733 533.111 156.733C533.798 156.733 534.355 157.661 534.355 158.806C534.355 159.951 533.798 160.879 533.111 160.879ZM230.01 145.123C230.01 145.581 230.196 145.952 230.425 145.952C230.654 145.952 230.839 145.581 230.839 145.123C230.839 144.665 230.654 144.294 230.425 144.294C230.196 144.294 230.01 144.665 230.01 145.123Z" fill="url(#paint0_linear_153_172)"/>
<line x1="301.284" y1="571.589" x2="456.284" y2="678.589" stroke="url(#paint1_linear_153_172)"/>
<line x1="2046.27" y1="471.581" x2="2243.27" y2="599.581" stroke="url(#paint2_linear_153_172)"/>
<line x1="1975.27" y1="374.581" x2="2172.27" y2="502.581" stroke="url(#paint3_linear_153_172)"/>
<line x1="901.272" y1="-9.41927" x2="1098.27" y2="118.581" stroke="url(#paint4_linear_153_172)"/>
<line x1="953.254" y1="73.5694" x2="1036.25" y2="122.569" stroke="url(#paint5_linear_153_172)"/>
<path fill-rule="evenodd" clip-rule="evenodd" d="M458.891 359.037C458.891 361.785 457.592 364.012 455.989 364.012C454.386 364.012 453.086 361.785 453.086 359.037C453.086 356.289 454.386 354.061 455.989 354.061C457.592 354.061 458.891 356.289 458.891 359.037Z" fill="url(#paint6_linear_153_172)"/>
<g filter="url(#filter0_d_153_172)">
<path fill-rule="evenodd" clip-rule="evenodd" d="M217.565 392.96C352.011 392.96 461.001 278.471 461.001 137.241C461.001 86.7202 447.054 39.621 422.984 -0.0395508H29V298.984C73.6415 356.345 141.533 392.96 217.565 392.96Z" fill="#ECECEC"/>
</g>
<path fill-rule="evenodd" clip-rule="evenodd" d="M189.437 396.96C324.505 396.96 434 281.306 434 138.638C434 87.6032 419.988 40.0247 395.807 -0.0395508H0V302.028C44.8481 359.972 113.053 396.96 189.437 396.96Z" fill="white"/>
<g filter="url(#filter1_b_153_172)">
<circle cx="154" cy="103.96" r="30" fill="#ECECEC"/>
</g>
<g filter="url(#filter2_b_153_172)">
<circle cx="271" cy="118.96" r="15" fill="#ECECEC" fill-opacity="0.6"/>
</g>
<g filter="url(#filter3_b_153_172)">
<circle cx="169" cy="295.96" r="15" fill="#ECECEC" fill-opacity="0.6"/>
</g>
<g filter="url(#filter4_b_153_172)">
<circle cx="115" cy="233.96" r="6" fill="#ECECEC" fill-opacity="0.6"/>
</g>
<g filter="url(#filter5_b_153_172)">
<circle cx="43" cy="180.96" r="6" fill="#ECECEC" fill-opacity="0.6"/>
</g>
<g filter="url(#filter6_b_153_172)">
<circle cx="236.5" cy="204.46" r="6.5" fill="#ECECEC" fill-opacity="0.6"/>
</g>
<g filter="url(#filter7_b_153_172)">
<circle cx="359.5" cy="187.46" r="6.5" fill="#ECECEC" fill-opacity="0.6"/>
</g>
<g filter="url(#filter8_b_153_172)">
<circle cx="353.5" cy="278.46" r="6.5" fill="#ECECEC" fill-opacity="0.6"/>
</g>
<g filter="url(#filter9_b_153_172)">
<circle cx="270.5" cy="346.46" r="6.5" fill="#ECECEC" fill-opacity="0.6"/>
</g>
<g filter="url(#filter10_f_153_172)">
<mask id="path-19-inside-1_153_172" fill="white">
<path fill-rule="evenodd" clip-rule="evenodd" d="M0 -3.11445H434.109C386.514 -77.5623 302.996 -126.952 207.907 -127C355.983 -126.926 476 -7.19919 476 140.48C476 288.205 355.909 407.96 207.769 407.96C123.994 407.96 49.1884 369.661 0 309.663V-3.11445Z"/>
</mask>
<path d="M434.109 -3.11445V-2.07067H436.015L434.989 -3.67667L434.109 -3.11445ZM0 -3.11445V-4.15823H-1.04378V-3.11445H0ZM0 309.663H-1.04378V310.037L-0.807186 310.325L0 309.663ZM434.109 -4.15823H0V-2.07067H434.109V-4.15823ZM207.907 -125.956C302.626 -125.908 385.819 -76.7121 433.23 -2.55222L434.989 -3.67667C387.209 -78.4124 303.367 -127.995 207.908 -128.044L207.907 -125.956ZM207.907 -125.956C355.409 -125.882 474.956 -6.62015 474.956 140.48H477.043C477.043 -7.77823 356.557 -127.969 207.908 -128.044L207.907 -125.956ZM474.956 140.48C474.956 287.626 355.335 406.917 207.769 406.917V409.004C356.483 409.004 477.043 288.785 477.043 140.48H474.956ZM207.769 406.917C124.319 406.917 49.8054 368.768 0.807186 309.002L-0.807186 310.325C48.5714 370.555 123.668 409.004 207.769 409.004V406.917ZM-1.04378 -3.11445V309.663H1.04378V-3.11445H-1.04378Z" fill="white" mask="url(#path-19-inside-1_153_172)"/>
</g>
<defs>
<filter id="filter0_d_153_172" x="-42.5069" y="-13.5464" width="575.014" height="536.014" filterUnits="userSpaceOnUse" color-interpolation-filters="sRGB">
<feFlood flood-opacity="0" result="BackgroundImageFix"/>
<feColorMatrix in="SourceAlpha" type="matrix" values="0 0 0 0 0 0 0 0 0 0 0 0 0 0 0 0 0 0 127 0" result="hardAlpha"/>
<feOffset dy="58"/>
<feGaussianBlur stdDeviation="35.7534"/>
<feComposite in2="hardAlpha" operator="out"/>
<feColorMatrix type="matrix" values="0 0 0 0 1 0 0 0 0 1 0 0 0 0 1 0 0 0 0.5 0"/>
<feBlend mode="normal" in2="BackgroundImageFix" result="effect1_dropShadow_153_172"/>
<feBlend mode="normal" in="SourceGraphic" in2="effect1_dropShadow_153_172" result="shape"/>
</filter>
<filter id="filter1_b_153_172" x="111.671" y="61.6317" width="84.6575" height="84.6575" filterUnits="userSpaceOnUse" color-interpolation-filters="sRGB">
<feFlood flood-opacity="0" result="BackgroundImageFix"/>
<feGaussianBlur in="BackgroundImage" stdDeviation="6.16438"/>
<feComposite in2="SourceAlpha" operator="in" result="effect1_backgroundBlur_153_172"/>
<feBlend mode="normal" in="SourceGraphic" in2="effect1_backgroundBlur_153_172" result="shape"/>
</filter>
<filter id="filter2_b_153_172" x="249.836" y="97.7961" width="42.3288" height="42.3288" filterUnits="userSpaceOnUse" color-interpolation-filters="sRGB">
<feFlood flood-opacity="0" result="BackgroundImageFix"/>
<feGaussianBlur in="BackgroundImage" stdDeviation="3.08219"/>
<feComposite in2="SourceAlpha" operator="in" result="effect1_backgroundBlur_153_172"/>
<feBlend mode="normal" in="SourceGraphic" in2="effect1_backgroundBlur_153_172" result="shape"/>
</filter>
<filter id="filter3_b_153_172" x="147.836" y="274.796" width="42.3288" height="42.3288" filterUnits="userSpaceOnUse" color-interpolation-filters="sRGB">
<feFlood flood-opacity="0" result="BackgroundImageFix"/>
<feGaussianBlur in="BackgroundImage" stdDeviation="3.08219"/>
<feComposite in2="SourceAlpha" operator="in" result="effect1_backgroundBlur_153_172"/>
<feBlend mode="normal" in="SourceGraphic" in2="effect1_backgroundBlur_153_172" result="shape"/>
</filter>
<filter id="filter4_b_153_172" x="106.534" y="225.495" width="16.9315" height="16.9315" filterUnits="userSpaceOnUse" color-interpolation-filters="sRGB">
<feFlood flood-opacity="0" result="BackgroundImageFix"/>
<feGaussianBlur in="BackgroundImage" stdDeviation="1.23288"/>
<feComposite in2="SourceAlpha" operator="in" result="effect1_backgroundBlur_153_172"/>
<feBlend mode="normal" in="SourceGraphic" in2="effect1_backgroundBlur_153_172" result="shape"/>
</filter>
<filter id="filter5_b_153_172" x="34.5342" y="172.495" width="16.9315" height="16.9315" filterUnits="userSpaceOnUse" color-interpolation-filters="sRGB">
<feFlood flood-opacity="0" result="BackgroundImageFix"/>
<feGaussianBlur in="BackgroundImage" stdDeviation="1.23288"/>
<feComposite in2="SourceAlpha" operator="in" result="effect1_backgroundBlur_153_172"/>
<feBlend mode="normal" in="SourceGraphic" in2="effect1_backgroundBlur_153_172" result="shape"/>
</filter>
<filter id="filter6_b_153_172" x="227.329" y="195.289" width="18.3425" height="18.3425" filterUnits="userSpaceOnUse" color-interpolation-filters="sRGB">
<feFlood flood-opacity="0" result="BackgroundImageFix"/>
<feGaussianBlur in="BackgroundImage" stdDeviation="1.33562"/>
<feComposite in2="SourceAlpha" operator="in" result="effect1_backgroundBlur_153_172"/>
<feBlend mode="normal" in="SourceGraphic" in2="effect1_backgroundBlur_153_172" result="shape"/>
</filter>
<filter id="filter7_b_153_172" x="350.329" y="178.289" width="18.3425" height="18.3425" filterUnits="userSpaceOnUse" color-interpolation-filters="sRGB">
<feFlood flood-opacity="0" result="BackgroundImageFix"/>
<feGaussianBlur in="BackgroundImage" stdDeviation="1.33562"/>
<feComposite in2="SourceAlpha" operator="in" result="effect1_backgroundBlur_153_172"/>
<feBlend mode="normal" in="SourceGraphic" in2="effect1_backgroundBlur_153_172" result="shape"/>
</filter>
<filter id="filter8_b_153_172" x="344.329" y="269.289" width="18.3425" height="18.3425" filterUnits="userSpaceOnUse" color-interpolation-filters="sRGB">
<feFlood flood-opacity="0" result="BackgroundImageFix"/>
<feGaussianBlur in="BackgroundImage" stdDeviation="1.33562"/>
<feComposite in2="SourceAlpha" operator="in" result="effect1_backgroundBlur_153_172"/>
<feBlend mode="normal" in="SourceGraphic" in2="effect1_backgroundBlur_153_172" result="shape"/>
</filter>
<filter id="filter9_b_153_172" x="261.329" y="337.289" width="18.3425" height="18.3425" filterUnits="userSpaceOnUse" color-interpolation-filters="sRGB">
<feFlood flood-opacity="0" result="BackgroundImageFix"/>
<feGaussianBlur in="BackgroundImage" stdDeviation="1.33562"/>
<feComposite in2="SourceAlpha" operator="in" result="effect1_backgroundBlur_153_172"/>
<feBlend mode="normal" in="SourceGraphic" in2="effect1_backgroundBlur_153_172" result="shape"/>
</filter>
<filter id="filter10_f_153_172" x="-4" y="-131" width="484" height="542.96" filterUnits="userSpaceOnUse" color-interpolation-filters="sRGB">
<feFlood flood-opacity="0" result="BackgroundImageFix"/>
<feBlend mode="normal" in="SourceGraphic" in2="BackgroundImageFix" result="shape"/>
<feGaussianBlur stdDeviation="2" result="effect1_foregroundBlur_153_172"/>
</filter>
<linearGradient id="paint0_linear_153_172" x1="1158.4" y1="-458.751" x2="1198.15" y2="1295.76" gradientUnits="userSpaceOnUse">
<stop offset="0.302083" stop-color="#44268F"/>
<stop offset="0.46865" stop-color="#5A69CE"/>
<stop offset="0.677083" stop-color="#67B3D9"/>
</linearGradient>
<linearGradient id="paint1_linear_153_172" x1="301" y1="572" x2="477" y2="695.5" gradientUnits="userSpaceOnUse">
<stop stop-color="white"/>
<stop offset="1" stop-color="white" stop-opacity="0"/>
</linearGradient>
<linearGradient id="paint2_linear_153_172" x1="2046" y1="472" x2="2269.48" y2="620.261" gradientUnits="userSpaceOnUse">
<stop stop-color="white"/>
<stop offset="1" stop-color="white" stop-opacity="0"/>
</linearGradient>
<linearGradient id="paint3_linear_153_172" x1="1975" y1="375" x2="2198.48" y2="523.261" gradientUnits="userSpaceOnUse">
<stop stop-color="white"/>
<stop offset="1" stop-color="white" stop-opacity="0"/>
</linearGradient>
<linearGradient id="paint4_linear_153_172" x1="901" y1="-9" x2="1124.48" y2="139.261" gradientUnits="userSpaceOnUse">
<stop stop-color="white"/>
<stop offset="1" stop-color="white" stop-opacity="0"/>
</linearGradient>
<linearGradient id="paint5_linear_153_172" x1="953" y1="74" x2="1047.53" y2="130.309" gradientUnits="userSpaceOnUse">
<stop stop-color="white"/>
<stop offset="0.557292" stop-color="white" stop-opacity="0"/>
</linearGradient>
<linearGradient id="paint6_linear_153_172" x1="455.882" y1="349.491" x2="457.505" y2="366.825" gradientUnits="userSpaceOnUse">
<stop offset="0.302083" stop-color="#44268F"/>
<stop offset="0.46865" stop-color="#5A69CE"/>
<stop offset="0.677083" stop-color="#67B3D9"/>
</linearGradient>
</defs>
</svg>
