<svg width="307" height="302" viewBox="0 0 307 302" fill="none" xmlns="http://www.w3.org/2000/svg">
<g filter="url(#filter0_d_39_132)">
<path d="M169.479 202.35C170.264 205.101 181.675 247.463 142.93 281.719C142.93 281.719 147.85 265.123 130.588 244.541C145.181 232.659 158.104 218.112 169.479 202.35Z" fill="white"/>
<path d="M142.99 281.711L122.192 250.808C125.061 248.759 127.867 246.615 130.617 244.367C147.923 265.041 142.99 281.711 142.99 281.711Z" fill="white"/>
<path d="M169.198 202.079C157.817 217.857 144.886 232.417 130.284 244.31C127.539 246.551 124.739 248.687 121.876 250.729C117.923 253.542 113.851 256.157 109.668 258.552L103.957 253.795L57.2273 214.873L51.5156 210.115C53.1265 205.578 54.9726 201.11 57.0413 196.718C58.536 193.545 60.143 190.407 61.8553 187.315C70.9583 170.841 82.9938 155.525 96.5012 141.52C114.764 122.597 135.73 106.069 155.819 92.3374C161.23 102.001 168.474 110.857 177.495 118.371C186.515 125.884 196.54 131.412 207.038 134.999C197.107 157.191 184.577 180.745 169.198 202.079Z" fill="white"/>
<path d="M104.236 253.526L96.0061 276.975L35.7981 226.694L57.3696 214.388L104.236 253.526Z" fill="white"/>
<path d="M206.926 135.43C203.297 134.182 199.727 132.713 196.242 131.001C189.59 127.76 183.229 123.665 177.297 118.712C171.366 113.759 166.2 108.229 161.827 102.263C159.515 99.1334 157.427 95.8869 155.559 92.5371C159.914 89.5529 164.23 86.6967 168.466 83.9764C169.659 86.1884 170.962 88.349 172.379 90.4531C176.415 96.4496 181.356 101.986 187.184 106.852C193.011 111.718 199.338 115.591 205.961 118.495C208.283 119.514 210.64 120.41 213.028 121.188C211.113 125.846 209.079 130.607 206.926 135.43Z" fill="white"/>
<path d="M212.855 121.317C208.558 119.922 204.351 118.139 200.285 115.954C195.674 113.49 191.246 110.525 187.075 107.05C182.905 103.575 179.189 99.7573 175.935 95.6676C173.06 92.0699 170.549 88.2556 168.405 84.2838C205.935 60.2519 237.375 46.844 237.375 46.844C237.375 46.844 229.8 80.1346 212.855 121.317Z" fill="white"/>
<path d="M56.9983 196.169L22.8613 181.253C22.8613 181.253 38.3785 173.412 61.8218 186.732C60.1061 189.836 58.4951 192.985 56.9983 196.169Z" fill="white"/>
<path d="M96.3397 141.041C82.84 155.033 70.8117 170.334 61.7145 186.792C38.3308 173.532 22.8532 181.337 22.8532 181.337C49.6972 137.113 93.5601 140.766 96.3397 141.041Z" fill="white"/>
</g>
<defs>
<filter id="filter0_d_39_132" x="11.5337" y="28.7329" width="252.254" height="272.606" filterUnits="userSpaceOnUse" color-interpolation-filters="sRGB">
<feFlood flood-opacity="0" result="BackgroundImageFix"/>
<feColorMatrix in="SourceAlpha" type="matrix" values="0 0 0 0 0 0 0 0 0 0 0 0 0 0 0 0 0 0 127 0" result="hardAlpha"/>
<feOffset dx="7.5463" dy="0.75463"/>
<feGaussianBlur stdDeviation="9.43287"/>
<feComposite in2="hardAlpha" operator="out"/>
<feColorMatrix type="matrix" values="0 0 0 0 0 0 0 0 0 0 0 0 0 0 0 0 0 0 0.2 0"/>
<feBlend mode="normal" in2="BackgroundImageFix" result="effect1_dropShadow_39_132"/>
<feBlend mode="normal" in="SourceGraphic" in2="effect1_dropShadow_39_132" result="shape"/>
</filter>
</defs>
</svg>
